<svg xmlns="http://www.w3.org/2000/svg" viewBox="0 0 248 30"><defs><style>.cls-1,.cls-2{fill:none;}.cls-2{stroke:#000;stroke-miterlimit:10;stroke-width:0.28px;}.cls-3{fill:#f7931e;}.cls-4{fill:#ff0;}.cls-5{fill:lime;}.cls-6{fill:red;}.cls-7{fill:#00a99d;}.cls-8{fill:#29abe2;}.cls-9{fill:blue;}.cls-10{fill:#662d91;}.cls-11{fill:#f0f;}.cls-12{fill:#ff7bac;}.cls-13{fill:#009245;}</style></defs><g id="レイヤー_2" data-name="レイヤー 2"><g id="レイヤー_1-2" data-name="レイヤー 1"><rect class="cls-1" width="248" height="30"/><polygon class="cls-2" points="35.52 15.52 34.52 14.52 35.52 13.52 42.52 13.52 43.52 14.52 42.42 15.51 35.52 15.52"/><polygon class="cls-2" points="35.52 5.52 34.52 4.52 35.52 3.52 42.52 3.52 43.52 4.52 42.42 5.51 35.52 5.52"/><polygon class="cls-3" points="45.52 5.52 44.51 4.52 45.51 3.52 52.51 3.52 53.51 4.52 52.42 5.51 45.52 5.52"/><polygon class="cls-3" points="45 13 44 14 43 13 43 6 44 5 45 6.09 45 13"/><polygon class="cls-2" points="35 13 34 14 33 13 33 6 34 5 35 6.09 35 13"/><polygon class="cls-3" points="55 13 54 14 53 13 53 6 54 5 55 6.09 55 13"/><polygon class="cls-3" points="45 23 44 24 43 23 43 16 44 15 45 16.09 45 23"/><polygon class="cls-3" points="55 23 54 24 53 23 53 16 54 15 55 16.09 55 23"/><polygon class="cls-2" points="35 23 34 24 33 23 33 16 34 15 35 16.09 35 23"/><polygon class="cls-3" points="45.52 25.52 44.52 24.52 45.52 23.52 52.52 23.52 53.52 24.52 52.42 25.51 45.52 25.52"/><polygon class="cls-2" points="35.52 25.52 34.52 24.52 35.52 23.52 42.52 23.52 43.52 24.52 42.42 25.51 35.52 25.52"/><polygon class="cls-3" points="45.52 15.52 44.52 14.52 45.52 13.52 52.52 13.52 53.52 14.52 52.42 15.51 45.52 15.52"/><polygon class="cls-3" points="55.52 15.52 54.52 14.52 55.52 13.52 62.52 13.52 63.52 14.52 62.42 15.51 55.52 15.52"/><polygon class="cls-3" points="55.52 5.52 54.51 4.52 55.51 3.52 62.51 3.51 63.51 4.51 62.42 5.51 55.52 5.52"/><polygon class="cls-2" points="65.52 5.52 64.52 4.52 65.52 3.52 72.52 3.52 73.52 4.52 72.42 5.51 65.52 5.52"/><polygon class="cls-3" points="65 13 64 14 63 13 63 6 64 5 65 6.09 65 13"/><polygon class="cls-4" points="75 13 74 14 73 13 73 6 74 5 75 6.09 75 13"/><polygon class="cls-3" points="65 23 64 24 63 23 63 16 64 15 65 16.09 65 23"/><polygon class="cls-4" points="75 23 74 24 73 23 73 16 74 15 75 16.09 75 23"/><polygon class="cls-2" points="65.52 25.52 64.52 24.52 65.52 23.52 72.52 23.52 73.52 24.52 72.42 25.51 65.52 25.52"/><polygon class="cls-3" points="55.52 25.52 54.52 24.52 55.52 23.52 62.52 23.52 63.52 24.52 62.42 25.51 55.52 25.52"/><polygon class="cls-2" points="65.52 15.52 64.52 14.52 65.52 13.52 72.52 13.52 73.52 14.52 72.42 15.51 65.52 15.52"/><polygon class="cls-4" points="75.52 15.52 74.52 14.52 75.52 13.52 82.52 13.52 83.52 14.52 82.42 15.51 75.52 15.52"/><polygon class="cls-4" points="75.52 5.52 74.52 4.52 75.52 3.52 82.52 3.52 83.52 4.52 82.42 5.51 75.52 5.52"/><polygon class="cls-2" points="85.52 5.52 84.52 4.52 85.52 3.52 92.52 3.52 93.52 4.52 92.42 5.51 85.52 5.52"/><polygon class="cls-4" points="85 13 84 14 83 13 83 6 84 5 85 6.09 85 13"/><polygon class="cls-2" points="95 13 94 14 93 13 93 6 94 5 95 6.09 95 13"/><polygon class="cls-2" points="85 23 84 24 83 23 83 16 84 15 85 16.09 85 23"/><polygon class="cls-5" points="95 23 94 24 93 23 93 16 94 15 95 16.09 95 23"/><polygon class="cls-2" points="85.52 25.52 84.52 24.52 85.52 23.52 92.52 23.52 93.52 24.52 92.42 25.51 85.52 25.52"/><polygon class="cls-2" points="75.52 25.52 74.52 24.52 75.52 23.52 82.52 23.52 83.52 24.52 82.42 25.51 75.52 25.52"/><polygon class="cls-2" points="85.52 15.52 84.52 14.52 85.52 13.52 92.52 13.52 93.52 14.52 92.42 15.51 85.52 15.52"/><polygon class="cls-2" points="5.51 5.52 4.51 4.52 5.51 3.52 12.52 3.52 13.52 4.52 12.42 5.51 5.51 5.52"/><polygon class="cls-2" points="5 13 4 14 3 13 3 6 4 5 5 6.09 5 13"/><polygon class="cls-2" points="15 13 14 14 13 13 13 6 14 5 15 6.09 15 13"/><polygon class="cls-2" points="5 23 4 24 3 23 3 16 4 15 5 16.09 5 23"/><polygon class="cls-2" points="15 23 14 24 13 23 13 16 14 15 15 16.09 15 23"/><polygon class="cls-2" points="5.51 25.52 4.51 24.52 5.51 23.52 12.52 23.52 13.52 24.52 12.42 25.51 5.51 25.52"/><polygon class="cls-2" points="5.51 15.52 4.51 14.52 5.51 13.52 12.52 13.52 13.52 14.52 12.42 15.51 5.51 15.52"/><polygon class="cls-2" points="15.52 15.52 14.52 14.52 15.52 13.52 22.52 13.52 23.52 14.52 22.42 15.51 15.52 15.52"/><polygon class="cls-2" points="15.52 5.52 14.52 4.52 15.52 3.52 22.52 3.52 23.52 4.52 22.42 5.51 15.52 5.52"/><polygon class="cls-2" points="25.52 5.52 24.52 4.52 25.52 3.52 32.52 3.52 33.52 4.52 32.42 5.51 25.52 5.52"/><polygon class="cls-6" points="25 13 24 14 23 13 23 6 24 5 25 6.09 25 13"/><polygon class="cls-6" points="25 23 24 24 23 23 23 16 24 15 25 16.09 25 23"/><polygon class="cls-6" points="25.52 25.52 24.52 24.52 25.52 23.52 32.52 23.52 33.52 24.52 32.42 25.51 25.52 25.52"/><polygon class="cls-6" points="15.52 25.52 14.52 24.52 15.52 23.52 22.52 23.52 23.52 24.52 22.42 25.51 15.52 25.52"/><polygon class="cls-6" points="25.52 15.52 24.52 14.52 25.52 13.52 32.52 13.52 33.52 14.52 32.42 15.51 25.52 15.52"/><polygon class="cls-2" points="125.52 15.52 124.52 14.52 125.52 13.52 132.51 13.52 133.51 14.52 132.42 15.51 125.52 15.52"/><polygon class="cls-7" points="125.52 5.52 124.52 4.52 125.52 3.52 132.51 3.52 133.51 4.52 132.42 5.51 125.52 5.52"/><polygon class="cls-7" points="135.51 5.52 134.51 4.52 135.51 3.52 142.51 3.52 143.51 4.52 142.42 5.51 135.51 5.52"/><polygon class="cls-7" points="135 13 134 14 133 13 133 6 134 5 135 6.09 135 13"/><polygon class="cls-2" points="125 13 124 14 123 13 123 6 124 5 125 6.09 125 13"/><polygon class="cls-2" points="145 13 144 14 143 13 143 6 144 5 145 6.09 145 13"/><polygon class="cls-7" points="135 23 134 24 133 23 133 16 134 15 135 16.09 135 23"/><polygon class="cls-2" points="145 23 144 24 143 23 143 16 144 15 145 16.09 145 23"/><polygon class="cls-2" points="125 23 124 24 123 23 123 16 124 15 125 16.09 125 23"/><polygon class="cls-2" points="135.51 25.52 134.51 24.52 135.51 23.52 142.51 23.52 143.51 24.52 142.42 25.51 135.51 25.52"/><polygon class="cls-2" points="125.52 25.52 124.52 24.52 125.52 23.52 132.51 23.52 133.51 24.52 132.42 25.51 125.52 25.52"/><polygon class="cls-2" points="135.51 15.52 134.51 14.52 135.51 13.52 142.51 13.52 143.51 14.52 142.42 15.51 135.51 15.52"/><polygon class="cls-2" points="145.51 15.52 144.51 14.52 145.51 13.52 152.51 13.52 153.51 14.52 152.42 15.51 145.51 15.52"/><polygon class="cls-2" points="145.51 5.52 144.51 4.52 145.51 3.52 152.51 3.52 153.51 4.52 152.42 5.51 145.51 5.52"/><polygon class="cls-8" points="155.51 5.52 154.51 4.52 155.51 3.52 162.51 3.52 163.51 4.52 162.42 5.51 155.51 5.52"/><polygon class="cls-8" points="155 13 154 14 153 13 153 6 154 5 155 6.09 155 13"/><polygon class="cls-2" points="165 13 164 14 163 13 163 6 164 5 165 6.09 165 13"/><polygon class="cls-8" points="155 23 154 24 153 23 153 16 154 15 155 16.09 155 23"/><polygon class="cls-2" points="165 23 164 24 163 23 163 16 164 15 165 16.09 165 23"/><polygon class="cls-2" points="155.51 25.52 154.51 24.52 155.51 23.52 162.51 23.52 163.51 24.52 162.42 25.51 155.51 25.52"/><polygon class="cls-2" points="145.51 25.52 144.51 24.52 145.51 23.52 152.51 23.52 153.51 24.52 152.42 25.51 145.51 25.52"/><polygon class="cls-8" points="155.51 15.52 154.51 14.52 155.51 13.52 162.51 13.52 163.51 14.52 162.42 15.51 155.51 15.52"/><polygon class="cls-2" points="165.51 15.52 164.51 14.52 165.51 13.52 172.51 13.52 173.51 14.52 172.42 15.51 165.51 15.52"/><polygon class="cls-2" points="165.51 5.52 164.51 4.52 165.51 3.52 172.51 3.52 173.51 4.52 172.42 5.51 165.51 5.52"/><polygon class="cls-2" points="175.51 5.52 174.51 4.52 175.51 3.52 182.51 3.52 183.51 4.52 182.42 5.51 175.51 5.52"/><polygon class="cls-2" points="175 13 174 14 173 13 173 6 174 5 175 6.09 175 13"/><polygon class="cls-2" points="185 13 184 14 183 13 183 6 184 5 185 6.09 185 13"/><polygon class="cls-9" points="175 23 174 24 173 23 173 16 174 15 175 16.09 175 23"/><polygon class="cls-9" points="185 23 184 24 183 23 183 16 184 15 185 16.09 185 23"/><polygon class="cls-9" points="175.51 25.52 174.51 24.52 175.51 23.52 182.51 23.52 183.51 24.52 182.42 25.51 175.51 25.52"/><polygon class="cls-2" points="165.51 25.52 164.51 24.52 165.51 23.52 172.51 23.52 173.51 24.52 172.42 25.51 165.51 25.52"/><polygon class="cls-9" points="175.51 15.52 174.51 14.52 175.51 13.52 182.51 13.52 183.51 14.52 182.42 15.51 175.51 15.52"/><polygon class="cls-2" points="185.51 5.52 184.51 4.52 185.51 3.52 192.51 3.52 193.51 4.52 192.42 5.51 185.51 5.52"/><polygon class="cls-10" points="195 13 194 14 193 13 193 6 194 5 195 6.09 195 13"/><polygon class="cls-10" points="195 23 194 24 193 23 193 16 194 15 195 16.09 195 23"/><polygon class="cls-2" points="185.51 25.52 184.51 24.52 185.51 23.52 192.51 23.52 193.51 24.52 192.42 25.51 185.51 25.52"/><polygon class="cls-2" points="185.51 15.52 184.51 14.52 185.51 13.52 192.51 13.52 193.51 14.52 192.42 15.51 185.51 15.52"/><polygon class="cls-2" points="195.01 15.53 194 14.52 195.01 13.51 202.08 13.51 203.09 14.52 201.99 15.52 195.01 15.53"/><polygon class="cls-2" points="195.01 5.42 194 4.41 195.01 3.4 202.08 3.4 203.09 4.41 201.99 5.42 195.01 5.42"/><polygon class="cls-2" points="205.11 5.42 204.1 4.41 205.11 3.4 212.18 3.4 213.19 4.41 212.09 5.42 205.11 5.42"/><polygon class="cls-2" points="204.59 12.98 203.58 13.99 202.57 12.98 202.57 5.91 203.58 4.9 204.59 6.01 204.59 12.98"/><polygon class="cls-11" points="214.69 12.98 213.68 13.99 212.67 12.98 212.67 5.91 213.68 4.9 214.69 6.01 214.69 12.98"/><polygon class="cls-2" points="204.59 23.09 203.58 24.1 202.57 23.09 202.57 16.02 203.58 15.01 204.59 16.11 204.59 23.09"/><polygon class="cls-11" points="214.69 23.09 213.68 24.1 212.67 23.09 212.67 16.02 213.68 15.01 214.69 16.11 214.69 23.09"/><polygon class="cls-2" points="205.11 25.63 204.1 24.62 205.11 23.61 212.18 23.61 213.19 24.62 212.09 25.63 205.11 25.63"/><polygon class="cls-10" points="195.01 25.63 194 24.62 195.01 23.61 202.08 23.61 203.09 24.62 201.99 25.63 195.01 25.63"/><polygon class="cls-2" points="205.11 15.53 204.1 14.52 205.11 13.51 212.18 13.51 213.19 14.52 212.09 15.52 205.11 15.53"/><polygon class="cls-2" points="215.21 15.53 214.2 14.52 215.21 13.51 222.29 13.51 223.3 14.52 222.19 15.52 215.21 15.53"/><polygon class="cls-2" points="215.21 5.42 214.2 4.41 215.21 3.4 222.29 3.4 223.3 4.41 222.19 5.42 215.21 5.42"/><polygon class="cls-2" points="225.32 5.42 224.31 4.41 225.32 3.4 232.39 3.4 233.4 4.41 232.29 5.42 225.32 5.42"/><polygon class="cls-2" points="224.8 12.98 223.79 13.99 222.78 12.98 222.78 5.91 223.79 4.9 224.79 6.01 224.8 12.98"/><polygon class="cls-2" points="234.9 12.98 233.89 13.99 232.88 12.98 232.88 5.91 233.89 4.9 234.9 6.01 234.9 12.98"/><polygon class="cls-12" points="224.8 23.09 223.79 24.1 222.78 23.09 222.78 16.02 223.79 15.01 224.79 16.11 224.8 23.09"/><polygon class="cls-12" points="234.9 23.09 233.89 24.1 232.88 23.09 232.88 16.02 233.89 15.01 234.9 16.11 234.9 23.09"/><polygon class="cls-12" points="225.32 25.63 224.31 24.62 225.32 23.61 232.39 23.61 233.4 24.62 232.29 25.63 225.32 25.63"/><polygon class="cls-2" points="215.21 25.63 214.2 24.62 215.21 23.61 222.29 23.61 223.3 24.62 222.19 25.63 215.21 25.63"/><polygon class="cls-12" points="225.32 15.53 224.31 14.52 225.32 13.51 232.39 13.51 233.4 14.52 232.29 15.52 225.32 15.53"/><polygon class="cls-2" points="235.42 5.42 234.41 4.41 235.42 3.4 242.49 3.4 243.5 4.41 242.4 5.42 235.42 5.42"/><polygon class="cls-2" points="245 12.98 243.99 13.99 242.98 12.98 242.98 5.91 243.99 4.9 245 6.01 245 12.98"/><polygon class="cls-2" points="245 23.09 243.99 24.1 242.98 23.09 242.98 16.02 243.99 15.01 245 16.11 245 23.09"/><polygon class="cls-2" points="235.42 25.63 234.41 24.62 235.42 23.61 242.49 23.61 243.5 24.62 242.4 25.63 235.42 25.63"/><polygon class="cls-2" points="235.42 15.53 234.41 14.52 235.42 13.51 242.49 13.51 243.5 14.52 242.4 15.52 235.42 15.53"/><polygon class="cls-2" points="95.52 5.52 94.52 4.52 95.52 3.52 102.52 3.52 103.52 4.52 102.42 5.51 95.52 5.52"/><polygon class="cls-2" points="105 13 104 14 103 13 103 6 104 5 105 6.09 105 13"/><polygon class="cls-5" points="105 23 104 24 103 23 103 16 104 15 105 16.09 105 23"/><polygon class="cls-5" points="95.52 25.52 94.52 24.52 95.52 23.52 102.52 23.52 103.52 24.52 102.42 25.51 95.52 25.52"/><polygon class="cls-5" points="95.52 15.52 94.52 14.52 95.52 13.52 102.52 13.52 103.52 14.52 102.42 15.51 95.52 15.52"/><polygon class="cls-2" points="105.52 15.52 104.52 14.52 105.52 13.52 112.52 13.52 113.52 14.52 112.42 15.51 105.52 15.52"/><polygon class="cls-2" points="105.52 5.52 104.52 4.52 105.52 3.52 112.52 3.52 113.52 4.52 112.42 5.51 105.52 5.52"/><polygon class="cls-2" points="115.52 5.52 114.52 4.52 115.52 3.52 122.52 3.52 123.52 4.52 122.42 5.51 115.52 5.52"/><polygon class="cls-2" points="115 13 114 14 113 13 113 6 114 5 115 6.09 115 13"/><polygon class="cls-13" points="115 23 114 24 113 23 113 16 114 15 115 16.09 115 23"/><polygon class="cls-2" points="115.52 25.52 114.52 24.52 115.52 23.52 122.52 23.52 123.52 24.52 122.42 25.51 115.52 25.52"/><polygon class="cls-2" points="105.52 25.52 104.52 24.52 105.52 23.52 112.52 23.52 113.52 24.52 112.42 25.51 105.52 25.52"/><polygon class="cls-13" points="115.52 15.52 114.52 14.52 115.52 13.52 122.52 13.52 123.52 14.52 122.42 15.51 115.52 15.52"/></g></g></svg>